<?xml version="1.0" encoding="UTF-8" standalone="no"?>
<svg
   version="1.1"
   width="256px"
   height="256px"
   style="shape-rendering:geometricPrecision; text-rendering:geometricPrecision; image-rendering:optimizeQuality; fill-rule:evenodd; clip-rule:evenodd"
   id="svg216"
   sodipodi:docname="Colab-Dark.svg"
   xml:space="preserve"
   inkscape:version="1.2.2 (732a01da63, 2022-12-09)"
   xmlns:inkscape="http://www.inkscape.org/namespaces/inkscape"
   xmlns:sodipodi="http://sodipodi.sourceforge.net/DTD/sodipodi-0.dtd"
   xmlns="http://www.w3.org/2000/svg"
   xmlns:svg="http://www.w3.org/2000/svg"><defs
     id="defs220" /><sodipodi:namedview
     id="namedview218"
     pagecolor="#ffffff"
     bordercolor="#000000"
     borderopacity="0.25"
     inkscape:showpageshadow="2"
     inkscape:pageopacity="0.0"
     inkscape:pagecheckerboard="0"
     inkscape:deskcolor="#d1d1d1"
     showgrid="true"
     inkscape:zoom="3.2382812"
     inkscape:cx="128.30881"
     inkscape:cy="128.1544"
     inkscape:window-width="1920"
     inkscape:window-height="1009"
     inkscape:window-x="-8"
     inkscape:window-y="-8"
     inkscape:window-maximized="1"
     inkscape:current-layer="svg216"
     showguides="true"><sodipodi:guide
       position="-34.586248,101.90591"
       orientation="1,0"
       id="guide424"
       inkscape:locked="false" /><inkscape:grid
       type="xygrid"
       id="grid426" /></sodipodi:namedview><g
     id="g114"
     transform="translate(0.92641737,0.30880579)"><path
       style="opacity:0.995"
       fill="#242938"
       d="m 49.5,-0.5 c 52,0 104,0 156,0 26.525,6.19136 43.192,22.5247 50,49 0,52.667 0,105.333 0,158 -6.781,26.448 -23.448,42.782 -50,49 -52,0 -104,0 -156,0 -26.5518,-6.218 -43.21851,-22.552 -50,-49 0,-52.667 0,-105.333 0,-158 6.80792,-26.4753 23.4746,-42.80864 50,-49 z"
       id="path112" /></g><g
     id="g412"
     transform="matrix(5.3333333,0,0,5.3333333,0.77201529,3.129876)"><path
       fill="#ffb300"
       d="M 33.5,10 C 26.044,10 20,16.044 20,23.5 20,30.956 26.044,37 33.5,37 40.956,37 47,30.956 47,23.5 47,16.044 40.956,10 33.5,10 Z m 0,20 C 29.91,30 27,27.09 27,23.5 27,19.91 29.91,17 33.5,17 c 3.59,0 6.5,2.91 6.5,6.5 0,3.59 -2.91,6.5 -6.5,6.5 z"
       id="path394" /><path
       fill="#ffb300"
       d="M 19.14,28.051 V 28.048 C 17.96,29.252 16.318,30 14.5,30 10.91,30 8,27.09 8,23.5 8,19.91 10.91,17 14.5,17 c 1.83,0 3.481,0.759 4.662,1.976 l 3.75,-6.024 C 20.604,11.109 17.683,10 14.5,10 7.044,10 1,16.044 1,23.5 1,30.956 7.044,37 14.5,37 c 3.164,0 6.067,-1.097 8.369,-2.919 z"
       id="path396" /><path
       fill="#f57c00"
       d="M 8,23.5 C 8,21.713 8.722,20.095 9.889,18.92 L 5.034,13.882 C 2.546,16.33 1,19.733 1,23.5 c 0,3.749 1.53,7.14 3.998,9.586 L 9.932,28.122 C 8.74,26.944 8,25.309 8,23.5 Z"
       id="path398" /><path
       fill="#f57c00"
       d="M 38.13,18.941 C 39.285,20.114 40,21.723 40,23.5 40,27.09 37.09,30 33.5,30 31.674,30 30.026,29.245 28.845,28.032 l -4.999,4.895 C 26.298,35.437 29.714,37 33.5,37 40.956,37 47,30.956 47,23.5 47,19.816 45.521,16.481 43.129,14.045 Z"
       id="path400" /></g></svg>
