<?xml version="1.0" encoding="UTF-8" standalone="no"?>
<svg
   version="1.1"
   width="280"
   height="256"
   style="clip-rule:evenodd;fill-rule:evenodd;image-rendering:optimizeQuality;shape-rendering:geometricPrecision;text-rendering:geometricPrecision"
   id="svg877"
   sodipodi:docname="Gmail-Dark.svg"
   inkscape:version="1.2.2 (732a01da63, 2022-12-09)"
   xml:space="preserve"
   xmlns:inkscape="http://www.inkscape.org/namespaces/inkscape"
   xmlns:sodipodi="http://sodipodi.sourceforge.net/DTD/sodipodi-0.dtd"
   xmlns="http://www.w3.org/2000/svg"
   xmlns:svg="http://www.w3.org/2000/svg"><defs
     id="defs881"><linearGradient
       id="70AWaG9FpYs2yn8LzRfdUa"
       x1="17.150999"
       x2="29.996"
       y1="8.4980001"
       y2="37.570999"
       gradientUnits="userSpaceOnUse"
       gradientTransform="matrix(5.3333333,0,0,5.3333333,31,-3.666668)"><stop
         offset="0"
         stop-color="#f09701"
         id="stop555" /><stop
         offset="1"
         stop-color="#e36001"
         id="stop557" /></linearGradient><linearGradient
       id="70AWaG9FpYs2yn8LzRfdUb"
       x1="1.319"
       x2="25.671"
       y1="44.651001"
       y2="1.059"
       gradientUnits="userSpaceOnUse"
       gradientTransform="matrix(5.3333333,0,0,5.3333333,31,-3.666668)"><stop
         offset="0"
         stop-color="#a1aab3"
         id="stop562" /><stop
         offset="1"
         stop-color="#8f979e"
         id="stop564" /></linearGradient><linearGradient
       id="linearGradient5394"
       x1="130"
       x2="130.62"
       y1="2.6559999"
       y2="254.64999"
       gradientUnits="userSpaceOnUse"
       gradientTransform="translate(23.999993)"><stop
         stop-color="#0091e6"
         offset="0"
         id="stop1101" /><stop
         stop-color="#0079bf"
         offset="1"
         id="stop1103" /></linearGradient></defs><sodipodi:namedview
     id="namedview879"
     pagecolor="#ffffff"
     bordercolor="#000000"
     borderopacity="0.25"
     inkscape:showpageshadow="2"
     inkscape:pageopacity="0.0"
     inkscape:pagecheckerboard="0"
     inkscape:deskcolor="#d1d1d1"
     showgrid="true"
     inkscape:zoom="1.6191406"
     inkscape:cx="217.09047"
     inkscape:cy="104.37636"
     inkscape:window-width="1920"
     inkscape:window-height="1009"
     inkscape:window-x="-8"
     inkscape:window-y="-8"
     inkscape:window-maximized="1"
     inkscape:current-layer="g15425"><inkscape:grid
       type="xygrid"
       id="grid883"
       originx="0"
       originy="0" /></sodipodi:namedview><g
     id="g15425"
     style="clip-rule:evenodd;fill-rule:evenodd;image-rendering:optimizeQuality;shape-rendering:geometricPrecision;text-rendering:geometricPrecision"
     transform="translate(24.5,0.5)"><path
       style="opacity:0.995"
       fill="#242938"
       d="m 49.5,-0.5 c 52,0 104,0 156,0 26.525,6.19136 43.192,22.5247 50,49 0,52.667 0,105.333 0,158 -6.781,26.448 -23.448,42.782 -50,49 -52,0 -104,0 -156,0 -26.5518,-6.218 -43.21851,-22.552 -50,-49 0,-52.667 0,-105.333 0,-158 6.80792,-26.4753 23.4746,-42.80864 50,-49 z"
       id="path15423" /><path
       fill="#4caf50"
       d="M 239.83333,85.500003 213.16666,100.16666 186.5,125.5 v 86.93333 h 37.33333 c 8.83733,0 16,-7.16267 16,-16 z"
       id="path16055"
       style="stroke-width:5.33333" /><path
       fill="#1e88e5"
       d="M 15.833334,85.500003 35.108,94.620003 69.166667,125.5 v 86.93333 H 31.833334 c -8.837333,0 -16,-7.16267 -16,-16 z"
       id="path16057"
       style="stroke-width:5.33333" /><polygon
       fill="#e53935"
       points="12,17 13,23.7 24,31.95 35,23.7 36,17 35,11.2 24,19.45 13,11.2 "
       id="polygon16059"
       transform="matrix(5.3333333,0,0,5.3333333,-0.1666661,-0.8999991)" /><path
       fill="#c62828"
       d="m 15.833334,64.689333 v 20.81067 L 69.166667,125.5 V 58.833333 L 52.505334,46.348001 C 48.537334,43.372001 43.716,41.766667 38.756,41.766667 v 0 c -12.661333,0 -22.922666,10.261336 -22.922666,22.922666 z"
       id="path16061"
       style="stroke-width:5.33333" /><path
       fill="#fbc02d"
       d="m 239.83333,64.689333 v 20.81067 L 186.5,125.5 V 58.833333 l 16.66133,-12.485332 c 3.968,-2.976 8.78933,-4.581334 13.74933,-4.581334 v 0 c 12.66134,0 22.92267,10.261336 22.92267,22.922666 z"
       id="path16063"
       style="stroke-width:5.33333" /></g></svg>
