<?xml version="1.0" encoding="UTF-8" standalone="no"?>
<svg
   version="1.1"
   width="284"
   height="256"
   style="clip-rule:evenodd;fill-rule:evenodd;image-rendering:optimizeQuality;shape-rendering:geometricPrecision;text-rendering:geometricPrecision"
   id="svg877"
   sodipodi:docname="Jupyter-Dark.svg"
   inkscape:version="1.2.2 (732a01da63, 2022-12-09)"
   xml:space="preserve"
   xmlns:inkscape="http://www.inkscape.org/namespaces/inkscape"
   xmlns:sodipodi="http://sodipodi.sourceforge.net/DTD/sodipodi-0.dtd"
   xmlns="http://www.w3.org/2000/svg"
   xmlns:svg="http://www.w3.org/2000/svg"><defs
     id="defs881"><linearGradient
       id="70AWaG9FpYs2yn8LzRfdUa"
       x1="17.150999"
       x2="29.996"
       y1="8.4980001"
       y2="37.570999"
       gradientUnits="userSpaceOnUse"
       gradientTransform="matrix(5.3333333,0,0,5.3333333,35,-3.666668)"><stop
         offset="0"
         stop-color="#f09701"
         id="stop555" /><stop
         offset="1"
         stop-color="#e36001"
         id="stop557" /></linearGradient><linearGradient
       id="70AWaG9FpYs2yn8LzRfdUb"
       x1="1.319"
       x2="25.671"
       y1="44.651001"
       y2="1.059"
       gradientUnits="userSpaceOnUse"
       gradientTransform="matrix(5.3333333,0,0,5.3333333,35,-3.666668)"><stop
         offset="0"
         stop-color="#a1aab3"
         id="stop562" /><stop
         offset="1"
         stop-color="#8f979e"
         id="stop564" /></linearGradient></defs><sodipodi:namedview
     id="namedview879"
     pagecolor="#ffffff"
     bordercolor="#000000"
     borderopacity="0.25"
     inkscape:showpageshadow="2"
     inkscape:pageopacity="0.0"
     inkscape:pagecheckerboard="0"
     inkscape:deskcolor="#d1d1d1"
     showgrid="true"
     inkscape:zoom="2.2898106"
     inkscape:cx="194.55757"
     inkscape:cy="170.31976"
     inkscape:window-width="1920"
     inkscape:window-height="1009"
     inkscape:window-x="-8"
     inkscape:window-y="-8"
     inkscape:window-maximized="1"
     inkscape:current-layer="svg877"><inkscape:grid
       type="xygrid"
       id="grid883"
       originx="0"
       originy="0" /></sodipodi:namedview><g
     id="g775"
     transform="translate(28.375281,0.5)"><path
       style="opacity:0.995"
       fill="#242938"
       d="m 49.5,-0.5 c 52,0 104,0 156,0 26.525,6.19136 43.192,22.5247 50,49 0,52.667 0,105.333 0,158 -6.781,26.448 -23.448,42.782 -50,49 -52,0 -104,0 -156,0 -26.5518,-6.218 -43.21851,-22.552 -50,-49 0,-52.667 0,-105.333 0,-158 6.80792,-26.4753 23.4746,-42.80864 50,-49 z"
       id="path773" /></g><path
     fill="url(#70AWaG9FpYs2yn8LzRfdUa)"
     d="M 78.24267,92.36533 C 91.18133,58.088 124.19467,33.66667 163,33.66667 c 38.80533,0 71.81867,24.42133 84.75733,58.69866 C 230.48267,74.2 199.03733,62.00266 163,62.00266 126.96267,62.00266 95.51733,74.2 78.24267,92.36533 Z M 163,186.66933 c -36.03733,0 -67.48267,-12.19733 -84.75733,-30.36267 C 91.18133,190.57866 124.19467,215 163,215 c 38.80533,0 71.81867,-24.42134 84.75733,-58.69867 -17.27466,18.16533 -48.72,30.368 -84.75733,30.368 z"
     id="path560"
     style="fill:url(#70AWaG9FpYs2yn8LzRfdUa);stroke-width:5.33333" /><path
     fill="url(#70AWaG9FpYs2yn8LzRfdUb)"
     d="m 245.73067,21.63467 c 0,8.08 -6.54934,14.63466 -14.63467,14.63466 -8.08533,0 -14.63467,-6.54933 -14.63467,-14.63466 0,-8.08534 6.55467,-14.634671 14.63467,-14.634671 8.08,0 14.63467,6.549331 14.63467,14.634671 z M 93.53867,211.88 c -9.696,0 -17.56267,7.86133 -17.56267,17.56266 0,9.696 7.86133,17.56267 17.56267,17.56267 9.70133,0 17.56266,-7.86133 17.56266,-17.56267 C 111.09633,219.74133 103.23467,211.88 93.53867,211.88 Z M 75.976,30.41333 c -6.464,0 -11.70667,5.24267 -11.70667,11.70667 0,6.464 5.24267,11.70666 11.70667,11.70666 6.464,0 11.70667,-5.24266 11.70667,-11.70666 0,-6.464 -5.24267,-11.70667 -11.70667,-11.70667 z"
     id="path567"
     style="fill:url(#70AWaG9FpYs2yn8LzRfdUb);stroke-width:5.33333" /></svg>
