<?xml version="1.0" encoding="UTF-8" standalone="no"?>
<svg
   version="1.1"
   width="284"
   height="256"
   style="clip-rule:evenodd;fill-rule:evenodd;image-rendering:optimizeQuality;shape-rendering:geometricPrecision;text-rendering:geometricPrecision"
   id="svg877"
   sodipodi:docname="Npm.svg"
   inkscape:version="1.2.2 (732a01da63, 2022-12-09)"
   xml:space="preserve"
   xmlns:inkscape="http://www.inkscape.org/namespaces/inkscape"
   xmlns:sodipodi="http://sodipodi.sourceforge.net/DTD/sodipodi-0.dtd"
   xmlns="http://www.w3.org/2000/svg"
   xmlns:svg="http://www.w3.org/2000/svg"><defs
     id="defs881"><linearGradient
       id="70AWaG9FpYs2yn8LzRfdUa"
       x1="17.150999"
       x2="29.996"
       y1="8.4980001"
       y2="37.570999"
       gradientUnits="userSpaceOnUse"
       gradientTransform="matrix(5.3333333,0,0,5.3333333,31,-3.666668)"><stop
         offset="0"
         stop-color="#f09701"
         id="stop555" /><stop
         offset="1"
         stop-color="#e36001"
         id="stop557" /></linearGradient><linearGradient
       id="70AWaG9FpYs2yn8LzRfdUb"
       x1="1.319"
       x2="25.671"
       y1="44.651001"
       y2="1.059"
       gradientUnits="userSpaceOnUse"
       gradientTransform="matrix(5.3333333,0,0,5.3333333,31,-3.666668)"><stop
         offset="0"
         stop-color="#a1aab3"
         id="stop562" /><stop
         offset="1"
         stop-color="#8f979e"
         id="stop564" /></linearGradient><linearGradient
       id="linearGradient5394"
       x1="130"
       x2="130.62"
       y1="2.6559999"
       y2="254.64999"
       gradientUnits="userSpaceOnUse"
       gradientTransform="translate(24.000012)"><stop
         stop-color="#0091e6"
         offset="0"
         id="stop1101" /><stop
         stop-color="#0079bf"
         offset="1"
         id="stop1103" /></linearGradient></defs><sodipodi:namedview
     id="namedview879"
     pagecolor="#ffffff"
     bordercolor="#000000"
     borderopacity="0.25"
     inkscape:showpageshadow="2"
     inkscape:pageopacity="0.0"
     inkscape:pagecheckerboard="0"
     inkscape:deskcolor="#d1d1d1"
     showgrid="true"
     inkscape:zoom="2.2898106"
     inkscape:cx="168.35453"
     inkscape:cy="131.0152"
     inkscape:window-width="1920"
     inkscape:window-height="1009"
     inkscape:window-x="-8"
     inkscape:window-y="-8"
     inkscape:window-maximized="1"
     inkscape:current-layer="svg877"><inkscape:grid
       type="xygrid"
       id="grid883"
       originx="0"
       originy="0" /></sodipodi:namedview><path
     fill="#cb3837"
     d="m 88,0 h 136 c 33.1,0 60,26.9 60,60 v 136 c 0,33.1 -26.9,60 -60,60 H 88 C 54.9,256 28,229.1 28,196 V 60 C 28,26.9 54.9,0 88,0 Z"
     id="path6510" /><path
     fill="#ffffff"
     d="m 56,146.8 h 25 v -37.5 h 12.5 v 37.5 H 106 v -50 H 56 Z m 62.5,-50.1 v 62.5 h 25 v -12.5 h 25 v -50 z m 37.5,37.5 h -12.5 v -25 H 156 Z m 25,-37.4 v 50 h 25 v -37.5 h 12.5 v 37.5 H 231 v -37.5 h 12.5 v 37.5 H 256 v -50 z"
     id="path6512" /></svg>
