<?xml version="1.0" encoding="UTF-8" standalone="no"?>
<svg
   version="1.1"
   width="280"
   height="256"
   style="clip-rule:evenodd;fill-rule:evenodd;image-rendering:optimizeQuality;shape-rendering:geometricPrecision;text-rendering:geometricPrecision"
   id="svg877"
   sodipodi:docname="Numpy-Dark.svg"
   inkscape:version="1.2.2 (732a01da63, 2022-12-09)"
   xml:space="preserve"
   xmlns:inkscape="http://www.inkscape.org/namespaces/inkscape"
   xmlns:sodipodi="http://sodipodi.sourceforge.net/DTD/sodipodi-0.dtd"
   xmlns="http://www.w3.org/2000/svg"
   xmlns:svg="http://www.w3.org/2000/svg"><defs
     id="defs881"><linearGradient
       id="70AWaG9FpYs2yn8LzRfdUa"
       x1="17.150999"
       x2="29.996"
       y1="8.4980001"
       y2="37.570999"
       gradientUnits="userSpaceOnUse"
       gradientTransform="matrix(5.3333333,0,0,5.3333333,31,-3.666668)"><stop
         offset="0"
         stop-color="#f09701"
         id="stop555" /><stop
         offset="1"
         stop-color="#e36001"
         id="stop557" /></linearGradient><linearGradient
       id="70AWaG9FpYs2yn8LzRfdUb"
       x1="1.319"
       x2="25.671"
       y1="44.651001"
       y2="1.059"
       gradientUnits="userSpaceOnUse"
       gradientTransform="matrix(5.3333333,0,0,5.3333333,31,-3.666668)"><stop
         offset="0"
         stop-color="#a1aab3"
         id="stop562" /><stop
         offset="1"
         stop-color="#8f979e"
         id="stop564" /></linearGradient><linearGradient
       id="linearGradient5394"
       x1="130"
       x2="130.62"
       y1="2.6559999"
       y2="254.64999"
       gradientUnits="userSpaceOnUse"
       gradientTransform="translate(23.999993)"><stop
         stop-color="#0091e6"
         offset="0"
         id="stop1101" /><stop
         stop-color="#0079bf"
         offset="1"
         id="stop1103" /></linearGradient></defs><sodipodi:namedview
     id="namedview879"
     pagecolor="#ffffff"
     bordercolor="#000000"
     borderopacity="0.25"
     inkscape:showpageshadow="2"
     inkscape:pageopacity="0.0"
     inkscape:pagecheckerboard="0"
     inkscape:deskcolor="#d1d1d1"
     showgrid="true"
     inkscape:zoom="2.2898106"
     inkscape:cx="160.49362"
     inkscape:cy="137.12925"
     inkscape:window-width="1920"
     inkscape:window-height="1009"
     inkscape:window-x="-8"
     inkscape:window-y="-8"
     inkscape:window-maximized="1"
     inkscape:current-layer="svg877"><inkscape:grid
       type="xygrid"
       id="grid883"
       originx="0"
       originy="0" /></sodipodi:namedview><g
     id="g15425"
     style="clip-rule:evenodd;fill-rule:evenodd;image-rendering:optimizeQuality;shape-rendering:geometricPrecision;text-rendering:geometricPrecision"
     transform="translate(24.5,0.5)"><path
       style="opacity:0.995"
       fill="#242938"
       d="m 49.5,-0.5 c 52,0 104,0 156,0 26.525,6.19136 43.192,22.5247 50,49 0,52.667 0,105.333 0,158 -6.781,26.448 -23.448,42.782 -50,49 -52,0 -104,0 -156,0 -26.5518,-6.218 -43.21851,-22.552 -50,-49 0,-52.667 0,-105.333 0,-158 6.80792,-26.4753 23.4746,-42.80864 50,-49 z"
       id="path15423" /></g><g
     id="g15429"
     style="clip-rule:evenodd;fill-rule:evenodd;image-rendering:optimizeQuality;shape-rendering:geometricPrecision;text-rendering:geometricPrecision"
     transform="translate(24.5,0.5)"><path
       style="opacity:1"
       fill="#4ca7cb"
       d="m 127.5,29.5 c 1.699,-0.1602 3.366,0.0065 5,0.5 10.174,4.8722 20.174,10.0389 30,15.5 -9.676,5.0656 -19.343,10.2323 -29,15.5 -1.333,0.6667 -2.667,0.6667 -4,0 -9.773,-5.1461 -19.44,-10.4795 -29,-16 0.772,-1.221 1.772,-2.221 3,-3 8.439,-3.4676 16.439,-7.6343 24,-12.5 z"
       id="path15427" /></g><g
     id="g15433"
     style="clip-rule:evenodd;fill-rule:evenodd;image-rendering:optimizeQuality;shape-rendering:geometricPrecision;text-rendering:geometricPrecision"
     transform="translate(24.5,0.5)"><path
       style="opacity:1"
       fill="#4ca8cc"
       d="m 85.5,85.5 c -1.5269,-0.073 -2.5269,0.5937 -3,2 -3.9696,-0.4841 -7.6363,-1.8175 -11,-4 -0.4731,-1.4063 -1.4731,-2.073 -3,-2 -2.8777,-1.6054 -5.8777,-2.9388 -9,-4 -0.4731,-1.4063 -1.4731,-2.073 -3,-2 -3.2522,-0.9594 -6.2522,-2.4594 -9,-4.5 9.6637,-5.9973 19.6637,-11.164 30,-15.5 1.5269,0.073 2.5269,-0.5937 3,-2 1.0832,-0.0394 2.0832,-0.3728 3,-1 10.8105,5.2797 21.477,10.9464 32,17 -9.741,5.8698 -19.741,11.2031 -30,16 z"
       id="path15431" /></g><g
     id="g15437"
     style="clip-rule:evenodd;fill-rule:evenodd;image-rendering:optimizeQuality;shape-rendering:geometricPrecision;text-rendering:geometricPrecision"
     transform="translate(24.5,0.5)"><path
       style="opacity:1"
       fill="#4ca8cb"
       d="m 174.5,53.5 c 2.027,-0.1621 4.027,0.0045 6,0.5 10.909,5.6474 21.909,11.1474 33,16.5 -9.812,5.4067 -19.812,10.5734 -30,15.5 -1.333,0.6667 -2.667,0.6667 -4,0 -10.669,-5.0421 -21.002,-10.5421 -31,-16.5 8.695,-5.3444 17.361,-10.6777 26,-16 z"
       id="path15435" /></g><g
     id="g15441"
     style="clip-rule:evenodd;fill-rule:evenodd;image-rendering:optimizeQuality;shape-rendering:geometricPrecision;text-rendering:geometricPrecision"
     transform="translate(24.5,0.5)"><path
       style="opacity:1"
       fill="#396a83"
       d="m 80.5,53.5 c -0.4731,1.4063 -1.4731,2.073 -3,2 0.4731,-1.4063 1.4731,-2.073 3,-2 z"
       id="path15439" /></g><g
     id="g15445"
     style="clip-rule:evenodd;fill-rule:evenodd;image-rendering:optimizeQuality;shape-rendering:geometricPrecision;text-rendering:geometricPrecision"
     transform="translate(24.5,0.5)"><path
       style="opacity:1"
       fill="#37657e"
       d="m 56.5,75.5 c 1.5269,-0.073 2.5269,0.5937 3,2 -1.5269,0.073 -2.5269,-0.5937 -3,-2 z"
       id="path15443" /></g><g
     id="g15449"
     style="clip-rule:evenodd;fill-rule:evenodd;image-rendering:optimizeQuality;shape-rendering:geometricPrecision;text-rendering:geometricPrecision"
     transform="translate(24.5,0.5)"><path
       style="opacity:1"
       fill="#4ca7cb"
       d="m 129.5,77.5 c 1.373,-0.1567 2.707,0.01 4,0.5 10.831,5.3686 21.498,10.8686 32,16.5 -11.029,5.735 -22.029,11.569 -33,17.5 -1.333,0.667 -2.667,0.667 -4,0 -2.811,-1.825 -5.811,-3.158 -9,-4 -7.467,-3.901 -14.8,-8.0677 -22,-12.5 10.448,-6.4613 21.114,-12.4613 32,-18 z"
       id="path15447" /></g><g
     id="g15453"
     style="clip-rule:evenodd;fill-rule:evenodd;image-rendering:optimizeQuality;shape-rendering:geometricPrecision;text-rendering:geometricPrecision"
     transform="translate(24.5,0.5)"><path
       style="opacity:1"
       fill="#4c76ce"
       d="m 40.5,82.5 c 8.4665,3.1507 16.2998,7.4841 23.5,13 11.1267,23.553 21.96,47.22 32.5,71 0.06,0.543 0.3933,0.876 1,1 0.9996,-18.321 1.3329,-36.655 1,-55 8.555,3.78 16.889,7.78 25,12 0.167,33.668 0,67.335 -0.5,101 -0.671,-0.752 -1.504,-1.086 -2.5,-1 -8.486,-3.987 -16.319,-8.987 -23.5,-15 -10.7612,-19.855 -21.2612,-39.855 -31.5,-60 0.073,-1.527 -0.5937,-2.527 -2,-3 -0.0569,-1.109 -0.3902,-2.109 -1,-3 -0.06,-0.543 -0.3933,-0.876 -1,-1 -0.6667,16.828 -1.3333,33.495 -2,50 -3.0156,-1.062 -6.0156,-2.229 -9,-3.5 -3.907,-2.759 -7.907,-5.259 -12,-7.5 -0.6596,-33.35 0.007,-66.35 2,-99 z"
       id="path15451" /></g><g
     id="g15457"
     style="clip-rule:evenodd;fill-rule:evenodd;image-rendering:optimizeQuality;shape-rendering:geometricPrecision;text-rendering:geometricPrecision"
     transform="translate(24.5,0.5)"><path
       style="opacity:1"
       fill="#37647d"
       d="m 68.5,81.5 c 1.5269,-0.073 2.5269,0.5937 3,2 -1.5269,0.073 -2.5269,-0.5937 -3,-2 z"
       id="path15455" /></g><g
     id="g15461"
     style="clip-rule:evenodd;fill-rule:evenodd;image-rendering:optimizeQuality;shape-rendering:geometricPrecision;text-rendering:geometricPrecision"
     transform="translate(24.5,0.5)"><path
       style="opacity:1"
       fill="#476bba"
       d="m 40.5,82.5 c -1.993,32.65 -2.6596,65.65 -2,99 -0.9983,-33.162 -1.3316,-66.496 -1,-100 1.291,-0.2373 2.291,0.096 3,1 z"
       id="path15459" /></g><g
     id="g15465"
     style="clip-rule:evenodd;fill-rule:evenodd;image-rendering:optimizeQuality;shape-rendering:geometricPrecision;text-rendering:geometricPrecision"
     transform="translate(24.5,0.5)"><path
       style="opacity:1"
       fill="#4ca9cd"
       d="m 191.5,141.5 c -0.996,-14.157 -1.329,-28.49 -1,-43 10.836,-5.5842 21.836,-10.9176 33,-16 0.333,14.3488 -0.001,28.682 -1,43 -10.372,5.4 -20.705,10.733 -31,16 z"
       id="path15463" /></g><g
     id="g15469"
     style="clip-rule:evenodd;fill-rule:evenodd;image-rendering:optimizeQuality;shape-rendering:geometricPrecision;text-rendering:geometricPrecision"
     transform="translate(24.5,0.5)"><path
       style="opacity:1"
       fill="#355e76"
       d="m 85.5,85.5 c -0.4731,1.4063 -1.4731,2.073 -3,2 0.4731,-1.4063 1.4731,-2.073 3,-2 z"
       id="path15467" /></g><g
     id="g15473"
     style="clip-rule:evenodd;fill-rule:evenodd;image-rendering:optimizeQuality;shape-rendering:geometricPrecision;text-rendering:geometricPrecision"
     transform="translate(24.5,0.5)"><path
       style="opacity:1"
       fill="#4491b1"
       d="m 174.5,106.5 c 0.342,-0.838 1.008,-1.172 2,-1 0.329,14.843 -0.004,29.51 -1,44 0.329,-14.51 -0.004,-28.843 -1,-43 z"
       id="path15471" /></g><g
     id="g15477"
     style="clip-rule:evenodd;fill-rule:evenodd;image-rendering:optimizeQuality;shape-rendering:geometricPrecision;text-rendering:geometricPrecision"
     transform="translate(24.5,0.5)"><path
       style="opacity:1"
       fill="#2b4052"
       d="m 176.5,105.5 c 0.996,14.824 1.329,29.824 1,45 -1.333,0 -2.667,0 -4,0 0.342,-0.838 1.008,-1.172 2,-1 0.996,-14.49 1.329,-29.157 1,-44 z"
       id="path15475" /></g><g
     id="g15481"
     style="clip-rule:evenodd;fill-rule:evenodd;image-rendering:optimizeQuality;shape-rendering:geometricPrecision;text-rendering:geometricPrecision"
     transform="translate(24.5,0.5)"><path
       style="opacity:1"
       fill="#4ca9cd"
       d="m 174.5,106.5 c 0.996,14.157 1.329,28.49 1,43 -0.992,-0.172 -1.658,0.162 -2,1 -6.468,2.734 -12.801,5.734 -19,9 -1.527,-0.073 -2.527,0.594 -3,2 -4.431,1.715 -8.765,3.715 -13,6 -1.166,-14.322 -1.333,-28.655 -0.5,-43 11.957,-6.395 24.124,-12.395 36.5,-18 z"
       id="path15479" /></g><g
     id="g15485"
     style="clip-rule:evenodd;fill-rule:evenodd;image-rendering:optimizeQuality;shape-rendering:geometricPrecision;text-rendering:geometricPrecision"
     transform="translate(24.5,0.5)"><path
       style="opacity:1"
       fill="#3f5e9e"
       d="m 98.5,112.5 c 0.3329,18.345 -4e-4,36.679 -1,55 -0.6067,-0.124 -0.94,-0.457 -1,-1 0.6667,-18 1.3333,-36 2,-54 z"
       id="path15483" /></g><g
     id="g15489"
     style="clip-rule:evenodd;fill-rule:evenodd;image-rendering:optimizeQuality;shape-rendering:geometricPrecision;text-rendering:geometricPrecision"
     transform="translate(24.5,0.5)"><path
       style="opacity:1"
       fill="#3a6f8a"
       d="m 190.5,98.5 c -0.329,14.51 0.004,28.843 1,43 -0.06,0.543 -0.393,0.876 -1,1 -1.326,-14.828 -1.326,-29.495 0,-44 z"
       id="path15487" /></g><g
     id="g15493"
     style="clip-rule:evenodd;fill-rule:evenodd;image-rendering:optimizeQuality;shape-rendering:geometricPrecision;text-rendering:geometricPrecision"
     transform="translate(24.5,0.5)"><path
       style="opacity:1"
       fill="#344875"
       d="m 123.5,124.5 c 0.998,33.829 1.332,67.829 1,102 -1.88,0.271 -3.213,-0.396 -4,-2 0.996,-0.086 1.829,0.248 2.5,1 0.5,-33.665 0.667,-67.332 0.5,-101 z"
       id="path15491" /></g><g
     id="g15497"
     style="clip-rule:evenodd;fill-rule:evenodd;image-rendering:optimizeQuality;shape-rendering:geometricPrecision;text-rendering:geometricPrecision"
     transform="translate(24.5,0.5)"><path
       style="opacity:1"
       fill="#4ca9cd"
       d="m 191.5,200.5 c -1.308,-14.539 -1.308,-29.206 0,-44 5.095,-3.083 10.428,-5.749 16,-8 1.527,0.073 2.527,-0.594 3,-2 4.228,-1.566 8.228,-3.566 12,-6 1.333,14.667 1.333,29.333 0,44 -10.485,5.36 -20.819,10.693 -31,16 z"
       id="path15495" /></g><g
     id="g15501"
     style="clip-rule:evenodd;fill-rule:evenodd;image-rendering:optimizeQuality;shape-rendering:geometricPrecision;text-rendering:geometricPrecision"
     transform="translate(24.5,0.5)"><path
       style="opacity:1"
       fill="#3e5996"
       d="m 62.5,143.5 c -0.6667,16.505 -1.3333,33.172 -2,50 -0.6067,-0.124 -0.94,-0.457 -1,-1 0.6667,-16.505 1.3333,-33.172 2,-50 0.6067,0.124 0.94,0.457 1,1 z"
       id="path15499" /></g><g
     id="g15505"
     style="clip-rule:evenodd;fill-rule:evenodd;image-rendering:optimizeQuality;shape-rendering:geometricPrecision;text-rendering:geometricPrecision"
     transform="translate(24.5,0.5)"><path
       style="opacity:1"
       fill="#396982"
       d="m 210.5,146.5 c -0.473,1.406 -1.473,2.073 -3,2 0.473,-1.406 1.473,-2.073 3,-2 z"
       id="path15503" /></g><g
     id="g15509"
     style="clip-rule:evenodd;fill-rule:evenodd;image-rendering:optimizeQuality;shape-rendering:geometricPrecision;text-rendering:geometricPrecision"
     transform="translate(24.5,0.5)"><path
       style="opacity:1"
       fill="#364b7a"
       d="m 63.5,146.5 c 1.4063,0.473 2.073,1.473 2,3 -1.4063,-0.473 -2.073,-1.473 -2,-3 z"
       id="path15507" /></g><g
     id="g15513"
     style="clip-rule:evenodd;fill-rule:evenodd;image-rendering:optimizeQuality;shape-rendering:geometricPrecision;text-rendering:geometricPrecision"
     transform="translate(24.5,0.5)"><path
       style="opacity:1"
       fill="#3a6f89"
       d="m 191.5,156.5 c -1.308,14.794 -1.308,29.461 0,44 -0.06,0.543 -0.393,0.876 -1,1 -1.166,-14.655 -1.333,-29.322 -0.5,-44 0.383,-0.556 0.883,-0.889 1.5,-1 z"
       id="path15511" /></g><g
     id="g15517"
     style="clip-rule:evenodd;fill-rule:evenodd;image-rendering:optimizeQuality;shape-rendering:geometricPrecision;text-rendering:geometricPrecision"
     transform="translate(24.5,0.5)"><path
       style="opacity:1"
       fill="#37637c"
       d="m 154.5,159.5 c -0.473,1.406 -1.473,2.073 -3,2 0.473,-1.406 1.473,-2.073 3,-2 z"
       id="path15515" /></g><g
     id="g15521"
     style="clip-rule:evenodd;fill-rule:evenodd;image-rendering:optimizeQuality;shape-rendering:geometricPrecision;text-rendering:geometricPrecision"
     transform="translate(24.5,0.5)"><path
       style="opacity:1"
       fill="#4ca9cd"
       d="m 138.5,226.5 c -0.316,-14.745 0.017,-29.412 1,-44 11.417,-6.883 23.417,-12.883 36,-18 1.333,14.667 1.333,29.333 0,44 -12.41,6.015 -24.743,12.015 -37,18 z"
       id="path15519" /></g><g
     id="g15525"
     style="clip-rule:evenodd;fill-rule:evenodd;image-rendering:optimizeQuality;shape-rendering:geometricPrecision;text-rendering:geometricPrecision"
     transform="translate(24.5,0.5)"><path
       style="opacity:1"
       fill="#4593b4"
       d="m 139.5,182.5 c -0.983,14.588 -1.316,29.255 -1,44 -0.684,-6.422 -1.017,-13.588 -1,-21.5 0.003,-7.864 0.669,-15.364 2,-22.5 z"
       id="path15523" /></g></svg>
