<?xml version="1.0" encoding="UTF-8" standalone="no"?>
<svg
   version="1.1"
   width="280"
   height="256"
   style="clip-rule:evenodd;fill-rule:evenodd;image-rendering:optimizeQuality;shape-rendering:geometricPrecision;text-rendering:geometricPrecision"
   id="svg877"
   sodipodi:docname="Pandas-Dark.svg"
   inkscape:version="1.2.2 (732a01da63, 2022-12-09)"
   xml:space="preserve"
   xmlns:inkscape="http://www.inkscape.org/namespaces/inkscape"
   xmlns:sodipodi="http://sodipodi.sourceforge.net/DTD/sodipodi-0.dtd"
   xmlns="http://www.w3.org/2000/svg"
   xmlns:svg="http://www.w3.org/2000/svg"><defs
     id="defs881"><linearGradient
       id="70AWaG9FpYs2yn8LzRfdUa"
       x1="17.150999"
       x2="29.996"
       y1="8.4980001"
       y2="37.570999"
       gradientUnits="userSpaceOnUse"
       gradientTransform="matrix(5.3333333,0,0,5.3333333,31,-3.666668)"><stop
         offset="0"
         stop-color="#f09701"
         id="stop555" /><stop
         offset="1"
         stop-color="#e36001"
         id="stop557" /></linearGradient><linearGradient
       id="70AWaG9FpYs2yn8LzRfdUb"
       x1="1.319"
       x2="25.671"
       y1="44.651001"
       y2="1.059"
       gradientUnits="userSpaceOnUse"
       gradientTransform="matrix(5.3333333,0,0,5.3333333,31,-3.666668)"><stop
         offset="0"
         stop-color="#a1aab3"
         id="stop562" /><stop
         offset="1"
         stop-color="#8f979e"
         id="stop564" /></linearGradient><linearGradient
       id="linearGradient5394"
       x1="130"
       x2="130.62"
       y1="2.6559999"
       y2="254.64999"
       gradientUnits="userSpaceOnUse"
       gradientTransform="translate(23.999993)"><stop
         stop-color="#0091e6"
         offset="0"
         id="stop1101" /><stop
         stop-color="#0079bf"
         offset="1"
         id="stop1103" /></linearGradient></defs><sodipodi:namedview
     id="namedview879"
     pagecolor="#ffffff"
     bordercolor="#000000"
     borderopacity="0.25"
     inkscape:showpageshadow="2"
     inkscape:pageopacity="0.0"
     inkscape:pagecheckerboard="0"
     inkscape:deskcolor="#d1d1d1"
     showgrid="true"
     inkscape:zoom="2.2898106"
     inkscape:cx="160.49362"
     inkscape:cy="137.12925"
     inkscape:window-width="1920"
     inkscape:window-height="1009"
     inkscape:window-x="-8"
     inkscape:window-y="-8"
     inkscape:window-maximized="1"
     inkscape:current-layer="g15425"><inkscape:grid
       type="xygrid"
       id="grid883"
       originx="0"
       originy="0" /></sodipodi:namedview><g
     id="g15425"
     style="clip-rule:evenodd;fill-rule:evenodd;image-rendering:optimizeQuality;shape-rendering:geometricPrecision;text-rendering:geometricPrecision"
     transform="translate(24.5,0.5)"><path
       style="opacity:0.995"
       fill="#242938"
       d="m 49.5,-0.5 c 52,0 104,0 156,0 26.525,6.19136 43.192,22.5247 50,49 0,52.667 0,105.333 0,158 -6.781,26.448 -23.448,42.782 -50,49 -52,0 -104,0 -156,0 -26.5518,-6.218 -43.21851,-22.552 -50,-49 0,-52.667 0,-105.333 0,-158 6.80792,-26.4753 23.4746,-42.80864 50,-49 z"
       id="path15423" /><g
       id="g15181"
       style="clip-rule:evenodd;fill-rule:evenodd;image-rendering:optimizeQuality;shape-rendering:geometricPrecision;text-rendering:geometricPrecision"
       transform="translate(2,-3)"><path
         style="opacity:1"
         fill="#3414c4"
         d="m 172.5,17.5 c 8,0 16,0 24,0 0,55.3333 0,110.667 0,166 -8,0 -16,0 -24,0 0,-55.333 0,-110.6667 0,-166 z"
         id="path15179" /></g><g
       id="g15185"
       style="clip-rule:evenodd;fill-rule:evenodd;image-rendering:optimizeQuality;shape-rendering:geometricPrecision;text-rendering:geometricPrecision"
       transform="translate(2,-3)"><path
         style="opacity:1"
         fill="#3819c4"
         d="m 96.5,30.5 c 8,0 16,0 24,0 0,16.6667 0,33.3333 0,50 -8,0 -16,0 -24,0 0,-16.6667 0,-33.3333 0,-50 z"
         id="path15183" /></g><g
       id="g15189"
       style="clip-rule:evenodd;fill-rule:evenodd;image-rendering:optimizeQuality;shape-rendering:geometricPrecision;text-rendering:geometricPrecision"
       transform="translate(2,-3)"><path
         style="opacity:1"
         fill="#3415c4"
         d="m 58.5,71.5 c 8,0 16,0 24,0 0,55.333 0,110.667 0,166 -8,0 -16,0 -24,0 0,-55.333 0,-110.667 0,-166 z"
         id="path15187" /></g><g
       id="g15193"
       style="clip-rule:evenodd;fill-rule:evenodd;image-rendering:optimizeQuality;shape-rendering:geometricPrecision;text-rendering:geometricPrecision"
       transform="translate(2,-3)"><path
         style="opacity:1"
         fill="#3617c4"
         d="m 134.5,71.5 c 8,0 16,0 24,0 0,16.6667 0,33.333 0,50 -8,0 -16,0 -24,0 0,-16.667 0,-33.3333 0,-50 z"
         id="path15191" /></g><g
       id="g15197"
       style="clip-rule:evenodd;fill-rule:evenodd;image-rendering:optimizeQuality;shape-rendering:geometricPrecision;text-rendering:geometricPrecision"
       transform="translate(2,-3)"><path
         style="opacity:1"
         fill="#faf772"
         d="m 120.5,118.5 c 0,-7.667 0,-15.333 0,-23 -7.667,0 -15.333,0 -23,0 0,7.667 0,15.333 0,23 -0.9924,-7.816 -1.3257,-15.816 -1,-24 8.333,0 16.667,0 25,0 0.326,8.184 -0.008,16.184 -1,24 z"
         id="path15195" /></g><g
       id="g15201"
       style="clip-rule:evenodd;fill-rule:evenodd;image-rendering:optimizeQuality;shape-rendering:geometricPrecision;text-rendering:geometricPrecision"
       transform="translate(2,-3)"><path
         style="opacity:1"
         fill="#fefd00"
         d="m 120.5,118.5 c -7.667,0 -15.333,0 -23,0 0,-7.667 0,-15.333 0,-23 7.667,0 15.333,0 23,0 0,7.667 0,15.333 0,23 z"
         id="path15199" /></g><g
       id="g15205"
       style="clip-rule:evenodd;fill-rule:evenodd;image-rendering:optimizeQuality;shape-rendering:geometricPrecision;text-rendering:geometricPrecision"
       transform="translate(2,-3)"><path
         style="opacity:1"
         fill="#8d7bd7"
         d="m 120.5,133.5 c -7.667,0 -15.333,0 -23,0 0,16.333 0,32.667 0,49 7.667,0 15.333,0 23,0 -7.816,0.992 -15.816,1.326 -24,1 0,-17 0,-34 0,-51 8.184,-0.326 16.184,0.008 24,1 z"
         id="path15203" /></g><g
       id="g15209"
       style="clip-rule:evenodd;fill-rule:evenodd;image-rendering:optimizeQuality;shape-rendering:geometricPrecision;text-rendering:geometricPrecision"
       transform="translate(2,-3)"><path
         style="opacity:1"
         fill="#3312c4"
         d="m 120.5,133.5 c 0,16.333 0,32.667 0,49 -7.667,0 -15.333,0 -23,0 0,-16.333 0,-32.667 0,-49 7.667,0 15.333,0 23,0 z"
         id="path15207" /></g><g
       id="g15213"
       style="clip-rule:evenodd;fill-rule:evenodd;image-rendering:optimizeQuality;shape-rendering:geometricPrecision;text-rendering:geometricPrecision"
       transform="translate(2,-3)"><path
         style="opacity:1"
         fill="#fd2cf1"
         d="m 134.5,135.5 c 8.007,-0.166 16.007,0 24,0.5 0.982,7.747 1.315,15.58 1,23.5 -8.333,0 -16.667,0 -25,0 0,-8 0,-16 0,-24 z"
         id="path15211" /></g><g
       id="g15217"
       style="clip-rule:evenodd;fill-rule:evenodd;image-rendering:optimizeQuality;shape-rendering:geometricPrecision;text-rendering:geometricPrecision"
       transform="translate(2,-3)"><path
         style="opacity:1"
         fill="#6c54cf"
         d="m 135.5,174.5 c 0,16.333 0,32.667 0,49 7.667,0 15.333,0 23,0 -7.816,0.992 -15.816,1.326 -24,1 -0.33,-16.842 0.003,-33.508 1,-50 z"
         id="path15215" /></g><g
       id="g15221"
       style="clip-rule:evenodd;fill-rule:evenodd;image-rendering:optimizeQuality;shape-rendering:geometricPrecision;text-rendering:geometricPrecision"
       transform="translate(2,-3)"><path
         style="opacity:1"
         fill="#3312c4"
         d="m 135.5,174.5 c 7.667,0 15.333,0 23,0 0,16.333 0,32.667 0,49 -7.667,0 -15.333,0 -23,0 0,-16.333 0,-32.667 0,-49 z"
         id="path15219" /></g></g></svg>
